<?xml version="1.0" encoding="UTF-8"?>
<svg width="29.779px" height="29.7787px" viewBox="0 0 29.779 29.7787" version="1.1" xmlns="http://www.w3.org/2000/svg" xmlns:xlink="http://www.w3.org/1999/xlink">
    <title>icon_04</title>
    <defs>
        <polygon id="path-1" points="0 0 30 0 30 29.9996978 0 29.9996978"></polygon>
    </defs>
    <g id="icon_04" stroke="none" stroke-width="1" fill="none" fill-rule="evenodd" opacity="0.699999988">
        <g id="Group-6" transform="translate(0.000000, -0.000000)">
            <g id="Group-3">
                <mask id="mask-2" fill="white">
                    <use xlink:href="#path-1"></use>
                </mask>
                <g id="Clip-2" opacity="0.699999988"></g>
                <path d="M15.0005037,1.03448276 C7.28466369,1.03448276 1.00742134,7.48034483 1.00742134,15.4034483 C1.00742134,23.3255172 7.28466369,29.7713793 15.0005037,29.7713793 C22.7163437,29.7713793 28.9935861,23.3255172 28.9935861,15.4034483 C28.9935861,7.48034483 22.7163437,1.03448276 15.0005037,1.03448276 M15.0005037,30 C6.72957453,30 6.57901335e-13,23.2714329 6.57901335e-13,15.0005037 C6.57901335e-13,6.72957453 6.72957453,0 15.0005037,0 C23.2714329,0 30.0010074,6.72957453 30.0010074,15.0005037 C30.0010074,23.2714329 23.2714329,30 15.0005037,30" id="Fill-1" fill="#FFFFFF" mask="url(#mask-2)"></path>
            </g>
            <path d="M24.5372963,26.3219047 C24.4728213,26.3219047 24.4063315,26.3098156 24.3438714,26.2826153 C18.0112209,23.6441788 17.6868312,22.5994829 17.5639258,22.2055811 C17.5488145,22.1572249 17.5417625,22.1058464 17.5417625,22.0554753 L17.5417625,20.785117 C17.5417625,20.6541523 17.5921336,20.5282246 17.6848164,20.433527 C18.4746347,19.6245676 19.0871469,18.5023003 19.4548557,17.1876154 C19.4860857,17.0757917 19.5555978,16.9780718 19.6502954,16.911582 C19.9958409,16.6687934 20.2285552,16.2859733 20.2869857,15.8588267 C20.347431,15.4276504 20.2265404,15.0005037 19.9454698,14.6559656 C19.8729355,14.5663051 19.8326387,14.4534739 19.8326387,14.3376205 L19.8326387,11.49367 C19.8326387,8.58725948 18.1492376,7.05194936 14.9637713,7.05194936 C11.8226316,7.05194936 10.0928892,8.62957117 10.0928892,11.49367 L10.0928892,14.3386279 C10.0928892,14.4544813 10.0525923,14.5673125 9.98005797,14.656973 C9.70100226,15.0005037 9.5801117,15.4266429 9.63954956,15.8578193 C9.69898742,16.2839585 9.93069433,16.667786 10.2762398,16.911582 C10.36993,16.9780718 10.4394421,17.0757917 10.4706722,17.1876154 C10.838381,18.5012929 11.4508931,19.6235602 12.2417189,20.433527 C12.3344016,20.5282246 12.3847727,20.6541523 12.3847727,20.785117 L12.3847727,22.0554753 C12.3847727,22.1058464 12.3777208,22.1572249 12.3626094,22.2055811 C12.1540732,22.8735015 11.2131417,23.9323013 5.73377704,26.2090735 C5.47990686,26.3148527 5.18271757,26.1939622 5.07593091,25.9370697 C4.96914424,25.6801773 5.0900348,25.3850029 5.34793467,25.2782162 C10.3296332,23.2089728 11.2232159,22.2640116 11.3773514,21.9607777 L11.3773514,20.9866013 C10.5714143,20.1071225 9.94278339,18.9516102 9.54787422,17.621814 C9.05726003,17.2188455 8.73085552,16.6355485 8.64220244,15.995836 C8.55254194,15.3460492 8.70869225,14.7053293 9.08546783,14.1703885 L9.08546783,11.49367 C9.08546783,8.08153397 11.2836612,6.04452802 14.9637713,6.04452802 C18.6982822,6.04452802 20.84006,8.03015548 20.84006,11.49367 L20.84006,14.1693811 C21.217843,14.7053293 21.3750007,15.3470567 21.2843328,15.9978508 C21.1966871,16.6375634 20.8682678,17.2198529 20.3776536,17.6228215 C19.9827444,18.9526176 19.3541135,20.1081299 18.5491839,20.9866013 L18.5491839,21.9557406 C18.6821635,22.1944995 19.5243677,23.1837872 24.7307212,25.3537728 C24.9876136,25.4605595 25.1085042,25.7557339 25.002725,26.0116189 C24.9221312,26.2050438 24.7337435,26.3219047 24.5372963,26.3219047" id="Fill-4" fill="#FFFFFF"></path>
        </g>
    </g>
</svg>