<?xml version="1.0" encoding="UTF-8"?>
<svg width="17px" height="17px" viewBox="0 0 17 17" version="1.1" xmlns="http://www.w3.org/2000/svg" xmlns:xlink="http://www.w3.org/1999/xlink">
    <title>􀖂</title>
    <g id="Page-1" stroke="none" stroke-width="1" fill="none" fill-rule="evenodd">
        <g id="ホーム（仮）" transform="translate(-344.000000, -75.000000)" fill="#0D3F67" fill-rule="nonzero">
            <g id="Group-2528" transform="translate(0.749000, 15.921500)">
                <g id="Group-258" transform="translate(26.456000, 7.510200)">
                    <g id="sample" transform="translate(-21.000000, -0.000000)">
                        <path d="M352.743164,58.9423828 C353.859375,58.9423828 354.421875,58.3798828 354.421875,57.2197266 L354.421875,53.2910156 C354.421875,52.1308594 353.859375,51.5771484 352.743164,51.5771484 L348.744141,51.5771484 C347.619141,51.5771484 347.056641,52.1308594 347.056641,53.2910156 L347.056641,57.2197266 C347.056641,58.3798828 347.619141,58.9423828 348.744141,58.9423828 L352.743164,58.9423828 Z M343.927734,58.9423828 C345.043945,58.9423828 345.606445,58.3798828 345.606445,57.2197266 L345.606445,53.2910156 C345.606445,52.1308594 345.043945,51.5771484 343.927734,51.5771484 L339.919922,51.5771484 C338.803711,51.5771484 338.241211,52.1308594 338.241211,53.2910156 L338.241211,57.2197266 C338.241211,58.3798828 338.803711,58.9423828 339.919922,58.9423828 L343.927734,58.9423828 Z M343.901367,57.703125 L339.9375,57.703125 C339.629883,57.703125 339.480469,57.5449219 339.480469,57.2197266 L339.480469,53.2910156 C339.480469,52.9746094 339.629883,52.8164062 339.9375,52.8164062 L343.901367,52.8164062 C344.208984,52.8164062 344.367188,52.9746094 344.367188,53.2910156 L344.367188,57.2197266 C344.367188,57.5449219 344.208984,57.703125 343.901367,57.703125 Z M352.725586,57.703125 L348.761719,57.703125 C348.445312,57.703125 348.295898,57.5449219 348.295898,57.2197266 L348.295898,53.2910156 C348.295898,52.9746094 348.445312,52.8164062 348.761719,52.8164062 L352.725586,52.8164062 C353.033203,52.8164062 353.182617,52.9746094 353.182617,53.2910156 L353.182617,57.2197266 C353.182617,57.5449219 353.033203,57.703125 352.725586,57.703125 Z M342.670898,56.1826172 C342.793945,56.1826172 342.84668,56.1298828 342.84668,55.9804688 L342.84668,54.5214844 C342.84668,54.3808594 342.793945,54.328125 342.670898,54.328125 L341.167969,54.328125 C341.036133,54.328125 340.992188,54.3808594 340.992188,54.5214844 L340.992188,55.9804688 C340.992188,56.1298828 341.036133,56.1826172 341.167969,56.1826172 L342.670898,56.1826172 Z M351.539062,56.1826172 C351.670898,56.1826172 351.723633,56.1298828 351.723633,55.9804688 L351.723633,54.5214844 C351.723633,54.3808594 351.670898,54.328125 351.539062,54.328125 L350.036133,54.328125 C349.913086,54.328125 349.869141,54.3808594 349.869141,54.5214844 L349.869141,55.9804688 C349.869141,56.1298828 349.913086,56.1826172 350.036133,56.1826172 L351.539062,56.1826172 Z M343.927734,67.7578125 C345.043945,67.7578125 345.606445,67.2041016 345.606445,66.0439453 L345.606445,62.1064453 C345.606445,60.9550781 345.043945,60.3925781 343.927734,60.3925781 L339.919922,60.3925781 C338.803711,60.3925781 338.241211,60.9550781 338.241211,62.1064453 L338.241211,66.0439453 C338.241211,67.2041016 338.803711,67.7578125 339.919922,67.7578125 L343.927734,67.7578125 Z M349.157227,62.6689453 C349.280273,62.6689453 349.333008,62.6162109 349.333008,62.4667969 L349.333008,61.0078125 C349.333008,60.8671875 349.280273,60.8144531 349.157227,60.8144531 L347.654297,60.8144531 C347.522461,60.8144531 347.478516,60.8671875 347.478516,61.0078125 L347.478516,62.4667969 C347.478516,62.6162109 347.522461,62.6689453 347.654297,62.6689453 L349.157227,62.6689453 Z M353.824219,62.6689453 C353.947266,62.6689453 354,62.6162109 354,62.4667969 L354,61.0078125 C354,60.8671875 353.947266,60.8144531 353.824219,60.8144531 L352.321289,60.8144531 C352.189453,60.8144531 352.145508,60.8671875 352.145508,61.0078125 L352.145508,62.4667969 C352.145508,62.6162109 352.189453,62.6689453 352.321289,62.6689453 L353.824219,62.6689453 Z M343.901367,66.5185547 L339.9375,66.5185547 C339.629883,66.5185547 339.480469,66.3603516 339.480469,66.0439453 L339.480469,62.1152344 C339.480469,61.7900391 339.629883,61.6318359 339.9375,61.6318359 L343.901367,61.6318359 C344.208984,61.6318359 344.367188,61.7900391 344.367188,62.1152344 L344.367188,66.0439453 C344.367188,66.3603516 344.208984,66.5185547 343.901367,66.5185547 Z M342.670898,65.0068359 C342.793945,65.0068359 342.84668,64.9541016 342.84668,64.7958984 L342.84668,63.3457031 C342.84668,63.2050781 342.793945,63.1523438 342.670898,63.1523438 L341.167969,63.1523438 C341.036133,63.1523438 340.992188,63.2050781 340.992188,63.3457031 L340.992188,64.7958984 C340.992188,64.9541016 341.036133,65.0068359 341.167969,65.0068359 L342.670898,65.0068359 Z M351.512695,65.0068359 C351.635742,65.0068359 351.688477,64.9541016 351.688477,64.7958984 L351.688477,63.3457031 C351.688477,63.2050781 351.635742,63.1523438 351.512695,63.1523438 L350.009766,63.1523438 C349.87793,63.1523438 349.833984,63.2050781 349.833984,63.3457031 L349.833984,64.7958984 C349.833984,64.9541016 349.87793,65.0068359 350.009766,65.0068359 L351.512695,65.0068359 Z M349.157227,67.3359375 C349.280273,67.3359375 349.333008,67.2832031 349.333008,67.1337891 L349.333008,65.6748047 C349.333008,65.5341797 349.280273,65.4814453 349.157227,65.4814453 L347.654297,65.4814453 C347.522461,65.4814453 347.478516,65.5341797 347.478516,65.6748047 L347.478516,67.1337891 C347.478516,67.2832031 347.522461,67.3359375 347.654297,67.3359375 L349.157227,67.3359375 Z M353.824219,67.3359375 C353.947266,67.3359375 354,67.2832031 354,67.1337891 L354,65.6748047 C354,65.5341797 353.947266,65.4814453 353.824219,65.4814453 L352.321289,65.4814453 C352.189453,65.4814453 352.145508,65.5341797 352.145508,65.6748047 L352.145508,67.1337891 C352.145508,67.2832031 352.189453,67.3359375 352.321289,67.3359375 L353.824219,67.3359375 Z" id="􀖂"></path>
                    </g>
                </g>
            </g>
        </g>
    </g>
</svg>