<?xml version="1.0" encoding="UTF-8"?>
<svg width="27px" height="27px" viewBox="0 0 27 27" version="1.1" xmlns="http://www.w3.org/2000/svg" xmlns:xlink="http://www.w3.org/1999/xlink">
    <title>􀐬</title>
    <g id="Page-1" stroke="none" stroke-width="1" fill="none" fill-rule="evenodd">
        <g id="PC_ホーム（仮）" transform="translate(-731.000000, -158.000000)" fill="#1CA1FD" fill-rule="nonzero">
            <path d="M744.22168,184.783203 C751.305664,184.783203 757.170898,178.917969 757.170898,171.833984 C757.170898,164.762695 751.292969,158.884766 744.208984,158.884766 C737.137695,158.884766 731.272461,164.762695 731.272461,171.833984 C731.272461,178.917969 737.150391,184.783203 744.22168,184.783203 Z M744.208984,173.205078 L737.582031,173.205078 C737.074219,173.205078 736.693359,172.824219 736.693359,172.316406 C736.693359,171.821289 737.074219,171.44043 737.582031,171.44043 L743.333008,171.44043 L743.333008,163.759766 C743.333008,163.264648 743.713867,162.883789 744.208984,162.883789 C744.704102,162.883789 745.097656,163.264648 745.097656,163.759766 L745.097656,172.316406 C745.097656,172.824219 744.704102,173.205078 744.208984,173.205078 Z" id="􀐬"></path>
        </g>
    </g>
</svg>