<?xml version="1.0" encoding="UTF-8"?>
<svg width="22px" height="25px" viewBox="0 0 22 25" version="1.1" xmlns="http://www.w3.org/2000/svg" xmlns:xlink="http://www.w3.org/1999/xlink">
    <title>􀑔</title>
    <g id="Page-1" stroke="none" stroke-width="1" fill="none" fill-rule="evenodd">
        <g id="ホーム（仮）" transform="translate(-61.000000, -234.000000)" fill="#1CA1FD" fill-rule="nonzero">
            <g id="Group-2528" transform="translate(0.749000, 15.921500)">
                <g id="Group-258" transform="translate(26.456000, 7.510200)">
                    <g id="sample" transform="translate(-21.000000, -0.000000)">
                        <g id="card_01" transform="translate(38.000000, 188.000000)">
                            <g id="􀑔" transform="translate(15.000000, 19.000000)">
                                <path d="M16.7792969,10.7441406 C18.0361328,10.7441406 18.6484375,10.1640625 18.6484375,8.92871094 L18.6484375,5.88867188 C18.6484375,4.65332031 18.0361328,4.07324219 16.7792969,4.07324219 L9.49609375,4.07324219 C8.22851562,4.07324219 7.62695312,4.65332031 7.62695312,5.88867188 L7.62695312,8.92871094 C7.62695312,10.1640625 8.22851562,10.7441406 9.49609375,10.7441406 L16.7792969,10.7441406 Z M19.8085938,27.8564453 C20.3671875,27.8564453 20.6464844,27.5341797 20.6464844,27.0615234 C20.6464844,26.9541016 20.6357422,26.8466797 20.6035156,26.7285156 L18.8847656,20.2939453 L19.5078125,20.2939453 C20.2060547,20.2939453 20.7324219,19.8535156 20.7324219,19.2412109 C20.7324219,18.5751953 20.2597656,18.1455078 19.5615234,18.1455078 L7.29394531,18.1455078 C6.48828125,18.1455078 6.02636719,17.7265625 6.02636719,16.953125 L6.02636719,14.0097656 L7.68066406,14.0097656 L7.68066406,14.8046875 C7.68066406,16.0292969 8.28222656,16.5986328 9.5390625,16.5986328 L16.7363281,16.5986328 C17.9824219,16.5986328 18.5839844,16.0292969 18.5839844,14.8046875 L18.5839844,14.0097656 L22.4511719,14.0097656 C23.03125,14.0097656 23.3964844,13.6875 23.3964844,13.1826172 C23.3964844,12.6669922 23.0419922,12.3447266 22.4941406,12.3447266 L3.58789062,12.3447266 C3.07226562,12.3447266 2.73925781,12.6777344 2.73925781,13.1826172 C2.73925781,13.6875 3.09375,14.0097656 3.64160156,14.0097656 L4.36132812,14.0097656 L4.36132812,18.0380859 C4.36132812,19.4560547 5.23144531,20.2939453 6.64941406,20.2939453 L7.31542969,20.2939453 L5.60742188,26.7285156 C5.57519531,26.8359375 5.55371094,26.9326172 5.55371094,27.0722656 C5.55371094,27.5126953 5.80078125,27.8564453 6.39160156,27.8564453 C6.89648438,27.8564453 7.10058594,27.5771484 7.21875,27.1152344 L8.12109375,23.6992188 L18.0791016,23.6992188 L18.9814453,27.1152344 C19.1103516,27.5771484 19.3466797,27.8564453 19.8085938,27.8564453 Z M17.6279297,22.0234375 L8.57226562,22.0234375 L9.0234375,20.2939453 L17.1767578,20.2939453 L17.6279297,22.0234375 Z"></path>
                            </g>
                        </g>
                    </g>
                </g>
            </g>
        </g>
    </g>
</svg>