<?xml version="1.0" encoding="UTF-8"?>
<svg width="21px" height="18px" viewBox="0 0 21 18" version="1.1" xmlns="http://www.w3.org/2000/svg" xmlns:xlink="http://www.w3.org/1999/xlink">
    <title>􀉛</title>
    <g id="Page-1" stroke="none" stroke-width="1" fill="none" fill-rule="evenodd">
        <g id="ホーム（仮）" transform="translate(-62.000000, -643.000000)" fill="#1CA1FD" fill-rule="nonzero">
            <g id="Group-2528" transform="translate(0.749000, 15.921500)">
                <g id="Group-258" transform="translate(26.456000, 7.510200)">
                    <g id="sample" transform="translate(-21.000000, -0.000000)">
                        <g id="card_01" transform="translate(38.000000, 594.000000)">
                            <g id="􀉛" transform="translate(16.000000, 23.000000)">
                                <path d="M3.33007812,20.5722656 C3.69140625,20.5722656 3.9453125,20.4453125 4.1796875,20.25 C4.75585938,19.7324219 6.11328125,19.0976562 7.91992188,19.0976562 C9.55078125,19.0976562 10.6347656,19.703125 11.1132812,20.0449219 C11.2792969,20.1425781 11.7871094,20.4355469 11.8945312,20.4453125 L11.8945312,5.6796875 C11.2597656,4.49804688 9.38476562,3.54101562 7.45117188,3.54101562 C5.01953125,3.54101562 2.94921875,4.94726562 2.49023438,5.89453125 L2.49023438,19.6835938 C2.49023438,20.328125 2.86132812,20.5722656 3.33007812,20.5722656 Z M21.6113281,20.5722656 C22.0800781,20.5722656 22.4609375,20.328125 22.4609375,19.6835938 L22.4609375,5.89453125 C22.0019531,4.94726562 19.9316406,3.54101562 17.5,3.54101562 C15.5664062,3.54101562 13.6914062,4.49804688 13.0664062,5.6796875 L13.0664062,20.4648438 C13.1738281,20.4550781 13.671875,20.1523438 13.8476562,20.0449219 C14.3261719,19.703125 15.4101562,19.0976562 17.03125,19.0976562 C18.8476562,19.0976562 20.1855469,19.7324219 20.78125,20.25 C21.0058594,20.4355469 21.25,20.5722656 21.6113281,20.5722656 Z"></path>
                            </g>
                        </g>
                    </g>
                </g>
            </g>
        </g>
    </g>
</svg>