<?xml version="1.0" encoding="UTF-8"?>
<svg width="30px" height="30px" viewBox="0 0 30 30" version="1.1" xmlns="http://www.w3.org/2000/svg" xmlns:xlink="http://www.w3.org/1999/xlink">
    <title>icon_03</title>
    <defs>
        <polygon id="path-1" points="0 0 11.2529543 0 11.2529543 21.99 0 21.99"></polygon>
        <polygon id="path-3" points="0 21.99 29.851 21.99 29.851 0 0 0"></polygon>
    </defs>
    <g id="icon_03" stroke="none" stroke-width="1" fill="none" fill-rule="evenodd">
        <g id="Group-11" transform="translate(0.000000, 4.000000)">
            <g id="Group-3" transform="translate(16.118763, 0.000000)">
                <mask id="mask-2" fill="white">
                    <use xlink:href="#path-1"></use>
                </mask>
                <g id="Clip-2"></g>
                <path d="M1.12343655,2.1394 L6.75143655,20.8674 L10.1304365,19.8504 L4.50343655,1.1224 L1.12343655,2.1394 Z M6.41643655,21.9904 C6.33443655,21.9904 6.25343655,21.9694 6.18043655,21.9304 C6.06243655,21.8684 5.97643655,21.7604 5.93743655,21.6334 L0.0214365491,1.9484 C-0.0585634509,1.6844 0.0924365491,1.4054 0.356436549,1.3264 L4.69443655,0.0214 C4.81943655,-0.0176 4.95743655,-0.0036 5.07443655,0.0594 C5.19143655,0.1214 5.27843655,0.2294 5.31643655,0.3564 L11.2314365,20.0414 C11.3114365,20.3054 11.1614365,20.5844 10.8964365,20.6634 L6.56043655,21.9684 C6.51343655,21.9834 6.46543655,21.9904 6.41643655,21.9904 L6.41643655,21.9904 Z" id="Fill-1" fill="#FFFFFF" mask="url(#mask-2)"></path>
            </g>
            <path d="M14.4502,7.99 C14.2152,7.99 14.0232,8.181 14.0232,8.417 C14.0232,8.652 14.2152,8.844 14.4502,8.844 C14.6852,8.844 14.8772,8.652 14.8772,8.417 C14.8772,8.181 14.6852,7.99 14.4502,7.99 M14.4502,9.844 C13.6632,9.844 13.0232,9.204 13.0232,8.417 C13.0232,7.63 13.6632,6.99 14.4502,6.99 C15.2372,6.99 15.8772,7.63 15.8772,8.417 C15.8772,9.204 15.2372,9.844 14.4502,9.844" id="Fill-4" fill="#FFFFFF"></path>
            <mask id="mask-4" fill="white">
                <use xlink:href="#path-3"></use>
            </mask>
            <g id="Clip-7"></g>
            <path d="M2.95,20.99 L5.95,20.99 L5.95,7.99 L2.95,7.99 L2.95,20.99 Z M6.45,21.99 L2.45,21.99 C2.174,21.99 1.95,21.766 1.95,21.49 L1.95,7.49 C1.95,7.214 2.174,6.99 2.45,6.99 L6.45,6.99 C6.727,6.99 6.95,7.214 6.95,7.49 L6.95,21.49 C6.95,21.766 6.727,21.99 6.45,21.99 L6.45,21.99 Z" id="Fill-6" fill="#FFFFFF" mask="url(#mask-4)"></path>
            <path d="M6.95,20.99 L10.95,20.99 L10.95,1.99 L6.95,1.99 L6.95,20.99 Z M11.45,21.99 L6.45,21.99 C6.174,21.99 5.95,21.766 5.95,21.49 L5.95,1.49 C5.95,1.214 6.174,0.99 6.45,0.99 L11.45,0.99 C11.727,0.99 11.95,1.214 11.95,1.49 L11.95,21.49 C11.95,21.766 11.727,21.99 11.45,21.99 L11.45,21.99 Z" id="Fill-8" fill="#FFFFFF" mask="url(#mask-4)"></path>
            <path d="M11.95,20.99 L16.95,20.99 L16.95,5.99 L11.95,5.99 L11.95,20.99 Z M17.45,21.99 L11.45,21.99 C11.174,21.99 10.95,21.766 10.95,21.49 L10.95,5.49 C10.95,5.214 11.174,4.99 11.45,4.99 L17.45,4.99 C17.727,4.99 17.95,5.214 17.95,5.49 L17.95,21.49 C17.95,21.766 17.727,21.99 17.45,21.99 L17.45,21.99 Z" id="Fill-9" fill="#FFFFFF" mask="url(#mask-4)"></path>
            <path d="M29.3506,21.99 L0.4996,21.99 C0.2236,21.99 -0.0004,21.766 -0.0004,21.49 C-0.0004,21.214 0.2236,20.99 0.4996,20.99 L29.3506,20.99 C29.6266,20.99 29.8506,21.214 29.8506,21.49 C29.8506,21.766 29.6266,21.99 29.3506,21.99" id="Fill-10" fill="#FFFFFF" mask="url(#mask-4)"></path>
        </g>
    </g>
</svg>