<?xml version="1.0" encoding="UTF-8"?>
<svg width="30px" height="30px" viewBox="0 0 30 30" version="1.1" xmlns="http://www.w3.org/2000/svg" xmlns:xlink="http://www.w3.org/1999/xlink">
    <title>icon_03</title>
    <defs>
        <polygon id="path-1" points="0 0 14.9995 0 14.9995 22.0541 0 22.0541"></polygon>
    </defs>
    <g id="icon_03" stroke="none" stroke-width="1" fill="none" fill-rule="evenodd">
        <g id="Group-14" transform="translate(0.000000, 3.000000)">
            <path d="M11,10 L4,10 C3.724,10 3.5,9.776 3.5,9.5 C3.5,9.224 3.724,9 4,9 L11,9 C11.276,9 11.5,9.224 11.5,9.5 C11.5,9.776 11.276,10 11,10" id="Fill-1" fill="#FFFFFF"></path>
            <path d="M11,14 L4,14 C3.724,14 3.5,13.776 3.5,13.5 C3.5,13.224 3.724,13 4,13 L11,13 C11.276,13 11.5,13.224 11.5,13.5 C11.5,13.776 11.276,14 11,14" id="Fill-3" fill="#FFFFFF"></path>
            <path d="M11,18 L4,18 C3.724,18 3.5,17.776 3.5,17.5 C3.5,17.224 3.724,17 4,17 L11,17 C11.276,17 11.5,17.224 11.5,17.5 C11.5,17.776 11.276,18 11,18" id="Fill-5" fill="#FFFFFF"></path>
            <g id="Group-9" transform="translate(0.000000, 2.360500)">
                <mask id="mask-2" fill="white">
                    <use xlink:href="#path-1"></use>
                </mask>
                <g id="Clip-8"></g>
                <path d="M7.4995,20.474 C9.8465,20.474 12.0305,20.637 13.9995,20.96 L13.9995,2.626 C13.9995,2.059 11.7675,1 7.4995,1 C3.2325,1 0.9995,2.059 0.9995,2.626 L0.9995,20.96 C2.9695,20.637 5.1525,20.474 7.4995,20.474 M14.4995,22.054 C14.4695,22.054 14.4395,22.051 14.4095,22.046 C12.3485,21.666 10.0235,21.474 7.4995,21.474 C4.9765,21.474 2.6515,21.666 0.5905,22.046 C0.4475,22.073 0.2945,22.034 0.1805,21.938 C0.0655,21.843 -0.0005,21.703 -0.0005,21.554 L-0.0005,2.626 C-0.0005,0.822 3.8875,0 7.4995,0 C11.1115,0 14.9995,0.822 14.9995,2.626 L14.9995,21.554 C14.9995,21.703 14.9345,21.843 14.8195,21.938 C14.7295,22.014 14.6155,22.054 14.4995,22.054" id="Fill-7" fill="#FFFFFF" mask="url(#mask-2)"></path>
            </g>
            <path d="M29.5,24.4146 C29.47,24.4146 29.439,24.4116 29.41,24.4066 C27.494,24.0536 24.654,23.8346 22,23.8346 C19.385,23.8346 17.561,24.0426 14.561,24.4106 C14.415,24.4266 14.276,24.3836 14.168,24.2896 C14.062,24.1946 14,24.0576 14,23.9146 L14,4.9866 C14,3.5166 16.772,2.8776 18.425,2.6276 C18.7,2.5876 18.953,2.7736 18.994,3.0466 C19.036,3.3196 18.848,3.5746 18.575,3.6156 C15.9,4.0206 15,4.7276 15,4.9866 L15,23.3496 C17.714,23.0196 19.495,22.8346 22,22.8346 C24.491,22.8346 27.052,23.0146 29,23.3226 L29,4.9866 C29,4.7726 28.16,4.0506 25.457,3.6156 C25.185,3.5716 24.999,3.3146 25.043,3.0416 C25.087,2.7686 25.345,2.5826 25.616,2.6276 C27.253,2.8916 30,3.5486 30,4.9866 L30,23.9146 C30,24.0626 29.934,24.2036 29.82,24.2986 C29.729,24.3736 29.616,24.4146 29.5,24.4146" id="Fill-10" fill="#FFFFFF"></path>
            <path d="M19,1 L19,14.765 L21.346,12.754 C21.71,12.44 22.292,12.444 22.655,12.76 L24.933,14.751 L24.933,1 L19,1 Z M19.003,15.766 C18.746,15.766 18.5,15.668 18.312,15.492 C18.111,15.302 18,15.044 18,14.765 L18,0.5 C18,0.224 18.224,0 18.5,0 L25.433,0 C25.709,0 25.933,0.224 25.933,0.5 L25.933,14.751 C25.933,15.303 25.483,15.752 24.93,15.752 C24.69,15.752 24.458,15.664 24.274,15.504 L21.997,13.513 L19.65,15.524 C19.469,15.68 19.239,15.766 19.003,15.766 L19.003,15.766 Z" id="Fill-12" fill="#FFFFFF"></path>
        </g>
    </g>
</svg>