<?xml version="1.0" encoding="UTF-8"?>
<svg width="30px" height="30px" viewBox="0 0 30 30" version="1.1" xmlns="http://www.w3.org/2000/svg" xmlns:xlink="http://www.w3.org/1999/xlink">
    <title>icon_01</title>
    <g id="icon_01" stroke="none" stroke-width="1" fill="none" fill-rule="evenodd">
        <path d="M14.8524205,3.57929537 C15.0136077,3.5 15.0574746,3.52861999 15.0913851,3.5643598 L15.0913851,3.5643598 L26.500187,13.6845194 L26.500187,23.8955885 C26.500187,24.6126649 26.442703,25.101624 26.1407365,25.3831678 C25.8228006,25.679601 25.2836177,25.7259534 24.5007819,25.7259534 L24.5007819,25.7259534 L18.942204,25.7259534 L18.942204,16.6914492 C18.942204,16.228336 18.7798571,15.854524 18.5130898,15.5915924 C18.2515394,15.3338026 17.8790418,15.1723012 17.4081886,15.1723012 L17.4081886,15.1723012 L12.6054591,15.1723012 C12.1422216,15.1723012 11.7672181,15.3338084 11.502773,15.5944512 C11.2358542,15.8575322 11.0714436,16.2307217 11.0714436,16.6914492 L11.0714436,16.6914492 L11.0714436,25.7259534 L5.32258473,25.7259534 C4.57580678,25.7259534 4.08156862,25.6933664 3.80430078,25.4151698 C3.5223228,25.1322472 3.5,24.6333619 3.5,23.8955885 L3.5,13.7500857 Z" id="Path" stroke="#FFFFFF" fill-rule="nonzero"></path>
    </g>
</svg>