<?xml version="1.0" encoding="UTF-8"?>
<svg width="301px" height="51px" viewBox="0 0 301 51" version="1.1" xmlns="http://www.w3.org/2000/svg" xmlns:xlink="http://www.w3.org/1999/xlink">
    <title>logo</title>
    <defs>
        <polygon id="path-1" points="0 0 48.6477 0 48.6477 50.7383011 0 50.7383011"></polygon>
    </defs>
    <g id="Page-1" stroke="none" stroke-width="1" fill="none" fill-rule="evenodd">
        <g id="パーツ一覧" transform="translate(-140.000000, -657.000000)">
            <g id="ヘッダー要素" transform="translate(102.000000, 389.000000)">
                <g id="Group-20" transform="translate(38.000000, 268.000000)">
                    <g id="Group-3">
                        <mask id="mask-2" fill="white">
                            <use xlink:href="#path-1"></use>
                        </mask>
                        <g id="Clip-2"></g>
                        <path d="M24.3247,49.562828 C11.5127,49.562828 1.1267,38.7311613 1.1267,25.3701935 C1.1267,12.0071398 11.5127,1.17547312 24.3247,1.17547312 C37.1357,1.17547312 47.5207,12.0071398 47.5207,25.3701935 C47.5207,38.7311613 37.1357,49.562828 24.3247,49.562828 M24.3247,-4.26325641e-14 C10.9117,-4.26325641e-14 -0.0003,11.3813333 -0.0003,25.3701935 C-0.0003,39.3580108 10.9117,50.7383011 24.3247,50.7383011 C37.7367,50.7383011 48.6477,39.3580108 48.6477,25.3701935 C48.6477,11.3813333 37.7367,-4.26325641e-14 24.3247,-4.26325641e-14" id="Fill-1" fill="#FEFEFE" mask="url(#mask-2)"></path>
                    </g>
                    <path d="M37.7471,8.44338065 L37.4445086,8.67793413 C42.0871209,12.6362873 45.0555,18.6543776 45.0555,25.3823968 C45.0555,37.2748054 35.7795,46.9497731 24.3765,46.9497731 C19.2242212,46.9497731 14.5060526,44.9742316 10.8817161,41.7112458 L26.3021,31.7640581 C26.3021,31.7640581 25.1001,25.9690903 27.2931,20.5913269 C27.2931,20.5913269 27.3026293,20.5642205 27.3232037,20.5115865 L27.3532916,20.4362736 C27.7336313,19.5024708 30.0308021,14.4728851 37.4432384,8.67909567 C37.4361681,8.67082298 37.4278223,8.66371847 37.4194711,8.65662062 L37.7471,8.44338065 L37.7471,8.44338065 Z M24.3765,3.81397742 C29.3173365,3.81397742 33.8588445,5.63038053 37.4194711,8.65662062 L22.0911,18.6575849 C22.0911,18.6575849 23.4731,25.4142086 20.6511,30.8472516 C20.6511,30.8472516 20.6401625,30.8706786 20.6178869,30.9158349 L20.5759197,30.9996541 C20.0936149,31.9504348 17.2498964,37.1745271 10.8717983,41.7014768 C10.8743649,41.7046253 10.8780399,41.7079362 10.8817161,41.7112458 L10.6101,41.8854344 C10.697986,41.824252 10.7852178,41.7629286 10.8717983,41.7014768 C6.4807321,37.7434518 3.6985,31.8954726 3.6985,25.3823968 C3.6985,13.4889452 12.9745,3.81397742 24.3765,3.81397742 Z" id="Fill-6" fill="#FEFEFE"></path>
                    <path d="M134.3345,14.9724194 L134.3345,21.3984086 L134.3345,21.3869355 C134.3345,21.3869355 134.2595,21.9376452 133.9745,22.1316452 C133.8585,22.2077849 133.7215,22.2234301 133.5615,22.1702366 C131.8795,21.5840645 129.9575,20.5493978 127.8525,19.0912688 L127.7005,18.9880108 L127.7005,19.1872258 L127.7005,21.9856237 C127.7005,22.3996989 127.3885,22.7397204 127.0005,22.7397204 L105.8905,22.7397204 C105.5115,22.7397204 105.1895,22.3996989 105.1895,21.9856237 L105.1895,19.4438065 L105.1895,19.2404194 L105.0405,19.3520215 C102.8255,20.9864194 101.0305,22.0064839 99.3935,22.5749247 C99.2315,22.6322903 99.0955,22.6229032 98.9805,22.5405054 C98.6945,22.3475484 98.6155,21.7999677 98.6155,21.7947527 L98.6155,21.8072688 L98.6155,15.3812796 C98.6235,15.3552043 98.6395,14.7648602 99.2705,14.6000645 L99.8275,14.4592581 C101.4045,14.0743871 105.1145,13.1690538 108.2205,11.6337419 C109.9755,10.768043 113.1725,8.53495699 114.7155,7.31984946 C115.3585,6.81398925 115.8605,6.41764516 116.4655,6.41764516 C117.0735,6.41764516 117.5185,6.73680645 118.1805,7.25622581 C119.6415,8.40458065 122.8715,10.3362366 124.6715,11.2227957 C127.7655,12.7518495 131.5035,13.6613548 133.1005,14.0462258 C133.3475,14.1088065 133.5445,14.1546989 133.6805,14.1912043 C134.3195,14.358086 134.3345,14.9473871 134.3345,14.9724194 L134.3345,14.9724194 Z M123.8935,15.9559785 C123.8215,15.8913118 123.7365,15.8266452 123.6695,15.7640645 C123.5855,15.7035699 123.5175,15.6441183 123.4665,15.5961398 C118.9485,11.0819892 117.1565,8.95633333 117.1365,8.93860215 L117.1475,8.95007527 C117.1365,8.92921505 116.8845,8.53495699 116.4655,8.53495699 C116.0545,8.53495699 115.7625,8.99596774 115.7515,9.01369892 L115.7515,9.00222581 C115.7395,9.02308602 114.0025,11.1018065 109.4825,15.6076129 C109.4365,15.6555914 109.3785,15.7056559 109.3125,15.7640645 C109.2385,15.8266452 109.1665,15.8913118 109.0875,15.9622366 L108.8945,16.1489355 L109.1555,16.1489355 L123.8255,16.1489355 L124.0925,16.1489355 L123.8935,15.9559785 Z M131.0685,26.9534839 L131.0685,42.5892581 C131.0685,43.4194946 130.4415,44.0995376 129.6755,44.0995376 L103.3965,44.0995376 C102.6205,44.0995376 101.9965,43.4194946 101.9965,42.5892581 L101.9965,26.9534839 C101.9965,26.1242903 102.6205,25.4442473 103.3965,25.4442473 L129.6755,25.4442473 C130.4415,25.4442473 131.0685,26.1242903 131.0685,26.9534839 L131.0685,26.9534839 Z M128.9075,32.9946022 C128.9075,32.4574516 128.5115,32.0193871 128.0105,32.0193871 L105.0625,32.0193871 C104.5635,32.0193871 104.1645,32.4574516 104.1645,32.9946022 L104.1645,36.5460538 C104.1645,37.0884194 104.5635,37.5191828 105.0625,37.5191828 L128.0105,37.5191828 C128.5115,37.5191828 128.9075,37.0884194 128.9075,36.5460538 L128.9075,32.9946022 Z" id="Fill-8" fill="#FEFEFE"></path>
                    <path d="M142.2812,11.5439387 C142.1162,11.4938742 141.9802,11.381229 141.9062,11.2206054 C141.8222,11.0422505 141.8182,10.8315624 141.8842,10.6292183 L143.1692,6.96929355 C143.3122,6.5573043 143.7232,6.31219677 144.0842,6.42692796 C144.0892,6.42692796 146.8592,7.1486914 146.8592,7.1486914 C147.8922,7.4209172 149.7922,8.13537957 149.8112,8.14059462 C149.9862,8.19378817 150.1142,8.31060538 150.1882,8.47122903 C150.2712,8.64958387 150.2812,8.86027204 150.2162,9.06261613 L148.9302,12.7225409 C148.7892,13.1303581 148.3782,13.3754656 148.0112,13.2649065 C147.9892,13.2586484 145.8532,12.5619172 145.1652,12.3042935 C144.4642,12.0424978 142.3602,11.5658419 142.2812,11.5439387 L142.2812,11.5439387 Z M171.5692,38.6048527 L167.0332,38.6048527 L166.9902,38.8103258 C167.2732,38.9448742 167.5392,39.0616914 167.8112,39.1618204 C170.2072,40.0515086 175.3822,39.6614226 175.6072,39.6395194 C175.9852,39.6395194 176.2942,39.9826699 176.2942,40.3977882 L176.2942,44.5875624 C176.2942,44.9859925 175.9972,45.2790785 175.5982,45.2790785 C175.5772,45.2790785 173.0952,45.0819495 168.6522,42.712229 C166.0282,41.3125086 164.5212,39.7271323 163.7102,38.6444871 L163.6792,38.6048527 L163.6312,38.6048527 L153.6782,38.6048527 L153.6352,38.6048527 L153.6012,38.6444871 C152.7952,39.7271323 151.2772,41.3125086 148.6612,42.712229 C144.2192,45.0819495 141.7332,45.2790785 141.7022,45.2790785 C141.3102,45.2790785 141.0182,44.9859925 141.0182,44.5875624 L141.0182,40.3977882 C141.0182,39.9826699 141.3322,39.6395194 141.7122,39.6395194 C141.9262,39.6614226 147.1092,40.0515086 149.5002,39.1618204 C149.7722,39.0616914 150.0392,38.9448742 150.3212,38.8103258 L150.2812,38.6048527 L145.8822,38.6048527 C145.1082,38.6048527 144.4812,37.9248097 144.4812,37.0956161 L144.4812,22.3224118 L144.4812,22.1231968 L144.3242,22.2264548 C142.8562,23.2569495 141.6812,23.7085731 141.6692,23.7085731 L141.7022,23.7044011 C141.3022,23.7044011 141.0092,23.4154871 141.0092,23.0118419 L141.0092,17.1282183 C141.0092,16.709971 141.3182,16.3689065 141.7022,16.3689065 C141.7802,16.3678634 143.5562,16.2739925 144.5072,15.9652613 C148.4192,14.7063473 149.4432,13.515229 149.4842,13.4630785 L149.4802,13.4714226 C149.8242,13.126186 149.9922,13.1752075 150.6552,13.7853688 C151.0312,14.1306054 150.9362,14.3767559 150.7482,14.7084333 C150.7382,14.7272075 149.2232,17.1636806 147.2652,19.5334011 C147.1092,19.719057 146.9462,19.9078419 146.7632,20.103928 L146.5902,20.2927129 L146.8302,20.2927129 L150.9362,20.2927129 L151.0362,20.2927129 L151.0362,20.1811108 L151.0362,17.7863581 C151.0362,17.3670677 151.3502,17.0312183 151.7362,17.0312183 C151.7712,17.0312183 155.3852,17.0385194 157.8932,15.9652613 C159.9082,15.0985194 160.6922,13.6737667 160.9782,12.8988097 L161.0312,12.7517452 L160.8842,12.7517452 L157.0782,12.7517452 L157.0362,12.7517452 L157.0112,12.7819925 C154.7952,15.1099925 152.5292,16.0883366 152.5022,16.0977237 L152.5382,16.0883366 C152.1382,16.0883366 151.8402,15.7994226 151.8402,15.3989065 L151.8402,10.0732935 C151.8402,9.65504624 152.1582,9.31815376 152.5382,9.31815376 C152.6342,9.3118957 154.6492,9.20446559 155.5542,8.72572366 C156.9272,7.99978817 157.8092,7.26968065 158.3102,6.78885269 C158.6342,6.48012151 158.6342,6.48012151 159.0732,5.90646559 C159.3542,5.51012151 159.4622,5.47778817 160.2102,5.97217527 C160.7802,6.34870215 160.7082,6.54374516 160.5932,6.87959462 C160.5932,6.8775086 160.4612,7.18519677 160.2652,7.67749785 L160.2002,7.82560538 L160.3582,7.82560538 L174.5742,7.82560538 C174.8002,7.82560538 175.5142,8.38153011 175.5142,9.02819677 C175.5142,9.06261613 175.4582,12.8967237 173.7322,15.4374978 C173.3412,16.0174118 172.8612,16.5691645 172.3072,17.0771108 L172.1282,17.2439925 L172.3592,17.2690247 C174.1712,17.4661538 175.7602,17.4765839 175.7692,17.4765839 C176.1572,17.4765839 176.4702,17.8176484 176.4702,18.2358957 L176.4702,23.017057 C176.4702,23.4248742 176.1782,23.7106591 175.7692,23.7106591 L175.7922,23.7106591 C175.7742,23.7085731 174.6642,23.5281323 173.0952,23.0045409 L172.9702,22.9586484 L172.9702,23.1067559 L172.9702,37.0956161 C172.9702,37.9248097 172.3402,38.6048527 171.5692,38.6048527 L171.5692,38.6048527 Z M164.2742,12.9186269 C164.8072,13.8281323 166.0522,15.4979925 168.3802,16.4283581 C168.4052,16.4367022 168.4232,16.4408742 168.4422,16.4502613 C168.4602,16.4554763 168.4672,16.4596484 168.4842,16.4627774 L168.6142,16.514928 L168.6142,16.3636914 L168.6142,14.5436376 C168.6142,14.2369925 168.8392,13.9897989 169.1262,13.9897989 C169.2312,13.9824978 171.3882,13.7853688 172.1502,13.3806806 C172.3592,13.2701215 172.5522,13.1324441 172.7612,12.9394871 L172.9762,12.7517452 L172.6992,12.7517452 L164.3532,12.7517452 L164.1742,12.7517452 L164.2742,12.9186269 Z M158.7202,20.2927129 L167.4052,20.2927129 L167.7222,20.2927129 L167.4602,20.0945409 C167.0012,19.7534763 166.6392,19.4572613 166.3122,19.1620892 C164.7452,17.7550677 163.4222,15.3050355 162.7822,13.9783258 L162.6562,13.7217452 L162.5942,13.999186 C162.4322,14.7543258 161.9712,16.2374871 160.7332,17.775928 C160.0502,18.6301538 159.3542,19.4092828 158.6622,20.103928 L158.4732,20.2927129 L158.7202,20.2927129 Z M170.6462,33.7485946 C170.6462,33.4513366 170.4222,33.2083151 170.1462,33.2083151 L147.3022,33.2083151 C147.0232,33.2083151 146.7992,33.4513366 146.7992,33.7485946 L146.7992,34.5423258 C146.7992,34.8333258 147.0232,35.0763473 147.3022,35.0763473 L170.1462,35.0763473 C170.4222,35.0763473 170.6462,34.8333258 170.6462,34.5423258 L170.6462,33.7485946 Z M170.6462,29.0654763 C170.6462,28.7650892 170.4222,28.5262398 170.1462,28.5262398 L147.3022,28.5262398 C147.0232,28.5262398 146.7992,28.7650892 146.7992,29.0654763 L146.7992,29.8529495 C146.7992,30.1491645 147.0232,30.394272 147.3022,30.394272 L170.1462,30.394272 C170.4222,30.394272 170.6462,30.1491645 170.6462,29.8529495 L170.6462,29.0654763 Z M170.6462,24.3573258 C170.6462,24.0590247 170.4222,23.8149602 170.1462,23.8149602 L147.3022,23.8149602 C147.0232,23.8149602 146.7992,24.0590247 146.7992,24.3573258 L146.7992,25.147928 C146.7992,25.444143 147.0232,25.6892505 147.3022,25.6892505 L170.1462,25.6892505 C170.4222,25.6892505 170.6462,25.444143 170.6462,25.147928 L170.6462,24.3573258 Z" id="Fill-10" fill="#FEFEFE"></path>
                    <path d="M259.1284,27.5343366 L244.1904,27.5343366 L244.0864,27.5343366 L244.0864,27.4300355 L244.0864,27.0837559 L244.0864,27.0086591 L244.1504,26.9815409 L254.0464,22.6499172 C254.5174,22.4361 254.9434,22.1753473 254.9434,21.3983043 L254.9434,18.7980785 C254.9434,18.3850462 254.6334,18.0450247 254.2464,18.0450247 L230.1334,18.0450247 C229.7454,18.0450247 229.4324,18.3850462 229.4324,18.7980785 L229.4324,23.507272 C229.4324,23.9192613 229.7454,24.2603258 230.1334,24.2603258 L244.2204,24.2603258 L244.2484,24.469971 C242.5474,25.2553581 242.2284,25.4118097 242.1984,25.4295409 C241.9274,25.641272 241.7254,25.8738634 241.7254,26.8918419 L241.7254,27.4300355 L241.7254,27.5343366 L241.6284,27.5343366 L225.0814,27.5343366 C224.7014,27.5343366 224.3814,27.872272 224.3814,28.2884333 L224.3814,33.1707667 C224.3814,33.586928 224.7014,33.9227774 225.0814,33.9227774 L241.6284,33.9227774 L241.7254,33.9227774 L241.7254,34.0270785 L241.7254,34.5475409 C241.7254,37.8121645 240.7034,37.954014 239.6154,38.1010785 L239.5024,38.1167237 L239.4954,38.1167237 L239.4864,38.1167237 L233.1554,38.1167237 C232.7744,38.1167237 232.4614,38.4546591 232.4614,38.8739495 L232.4614,43.8240785 C232.4614,44.259014 232.7854,44.6365891 233.1554,44.6365891 L240.9384,44.6365891 L241.0044,44.6365891 C241.5704,44.6365891 242.6304,44.645971 243.3574,43.8668419 C243.8404,43.3401215 244.0864,42.5265731 244.0864,41.452272 L244.0864,34.0270785 L244.0864,33.9227774 L244.1904,33.9227774 L259.1284,33.9227774 C259.5144,33.9227774 259.8284,33.586928 259.8284,33.1707667 L259.8284,28.2884333 C259.8284,27.872272 259.5144,27.5343366 259.1284,27.5343366 M259.3384,11.5554118 L259.3384,12.9081968 L259.3384,14.6604548 L259.3384,22.3182398 C259.3384,22.7364871 259.0244,23.0744226 258.6384,23.0744226 L257.8434,23.0744226 C257.4594,23.0744226 257.1444,22.7364871 257.1444,22.3182398 L257.1444,17.3587237 C257.1444,16.7026699 256.6504,16.1728204 256.0474,16.1728204 L228.2784,16.1728204 C227.6784,16.1728204 227.1844,16.7026699 227.1844,17.3587237 L227.1844,22.3182398 C227.1844,22.7364871 226.8684,23.0744226 226.4824,23.0744226 L225.6904,23.0744226 C225.2994,23.0744226 224.9844,22.7364871 224.9844,22.3182398 L224.9844,14.6604548 L224.9844,12.9081968 L224.9844,11.5554118 C224.9844,10.7210032 225.6094,10.0388742 226.3834,10.0388742 L231.9474,10.0388742 L232.1024,10.0388742 L232.0434,9.88659462 L232.0164,9.82714301 L231.9804,9.75621828 C231.4454,8.50251935 230.8974,7.48245484 230.8904,7.46993871 C230.7484,7.14556237 230.8374,6.55313226 231.1314,6.40398172 C231.1374,6.40398172 231.9944,5.9461 231.9944,5.9461 C232.3124,5.79382043 232.7444,5.94818602 232.8834,6.26526129 L232.8834,6.27256237 L232.8914,6.27777742 C232.8964,6.28716452 233.6584,7.53982043 234.1434,8.73511075 C234.2984,9.11268065 234.4624,9.52988495 234.6304,9.97942258 L234.6494,10.0388742 L234.7174,10.0388742 L240.3104,10.0388742 L240.4644,10.0388742 L240.3994,9.88659462 L240.3734,9.82714301 L240.3434,9.75621828 C239.8064,8.50251935 239.2554,7.48245484 239.2484,7.46993871 C239.1044,7.14556237 239.1994,6.55313226 239.4864,6.40398172 L240.3594,5.9461 C240.6674,5.79382043 241.1074,5.94818602 241.2394,6.26526129 L241.2394,6.27256237 L241.2454,6.27777742 C241.2584,6.28716452 242.0144,7.53982043 242.5064,8.73511075 C242.6564,9.11268065 242.8234,9.52988495 242.9894,9.97942258 L243.0134,10.0388742 L243.0784,10.0388742 L248.7384,10.0388742 L248.7884,10.0388742 L248.8134,10.0065409 C249.2044,9.50485269 249.5554,9.04175591 249.8434,8.62246559 C250.5624,7.55442258 251.0454,6.54374516 251.0514,6.53435806 C251.1994,6.21936882 251.6134,5.84701398 251.9734,5.97321828 C251.9664,5.97321828 253.0184,6.35704624 253.0184,6.35704624 C253.1984,6.41754086 253.3314,6.56251935 253.4054,6.7513043 C253.4664,6.91714301 253.4604,7.0902828 253.3964,7.22796022 C253.3904,7.24256237 253.0914,7.95702473 252.2304,9.38386344 C252.1404,9.52049785 252.0474,9.68112151 251.9234,9.87094946 L251.8064,10.0388742 L251.9984,10.0388742 L257.9424,10.0388742 C258.7094,10.0388742 259.3384,10.7210032 259.3384,11.5554118" id="Fill-12" fill="#FEFEFE"></path>
                    <path d="M292.104,31.157443 L292.208,31.157443 L299.877,31.157443 C300.258,31.157443 300.57,30.8153355 300.57,30.4002172 L300.57,25.3499591 C300.57,24.9306688 300.258,24.5937763 299.877,24.5937763 L277.544,24.5937763 C277.157,24.5937763 276.843,24.9306688 276.843,25.3499591 L276.843,30.4002172 C276.843,30.8153355 277.157,31.157443 277.544,31.157443 L282.893,31.157443 L283.006,31.157443 L282.99,31.2742602 C282.908,32.1608194 282.484,33.5063032 280.955,34.8736903 C278.954,36.6614108 275.59,36.8011742 275.549,36.8011742 C275.165,36.8011742 274.853,37.1380667 274.853,37.5584 L274.853,44.2180237 C274.853,44.6143677 275.149,44.9126688 275.549,44.9126688 L275.532,44.9126688 C275.572,44.9032817 279.206,44.1032925 282.264,39.8290344 C284.516,36.6780989 285.173,32.7803677 285.357,31.249228 L285.368,31.157443 L285.457,31.157443 L289.818,31.157443 L289.917,31.157443 L289.917,31.2659161 L289.917,42.1413892 C289.917,43.3450237 290.732,44.0834753 291.488,44.0834753 L297.067,44.0834753 C299.322,44.0574 300.498,43.7319806 300.498,36.9294645 L300.498,33.4750129 C300.498,33.0661527 300.173,32.7230022 299.783,32.7230022 L299.024,32.7230022 C298.624,32.7230022 298.314,33.100572 298.314,33.5866151 L298.314,35.7393892 C298.314,37.6658301 297.399,37.7284108 296.327,37.7941204 C296.327,37.7941204 296.209,37.8035075 296.203,37.8035075 L293.203,37.8035075 C292.34,37.7398839 292.104,36.7552817 292.104,36.1805828 L292.104,31.2659161 L292.104,31.157443 Z M296.133,22.7664215 C296.512,22.7664215 296.831,22.423271 296.831,22.0071097 L296.831,17.3354645 C296.831,16.9193032 296.512,16.5813677 296.133,16.5813677 L281.065,16.5813677 C280.684,16.5813677 280.368,16.9193032 280.368,17.3354645 L280.368,22.0071097 C280.368,22.423271 280.684,22.7664215 281.065,22.7664215 L296.133,22.7664215 Z M268.523,13.8799699 C268.523,13.5785398 268.745,13.3365613 269.019,13.3365613 L271.726,13.3365613 C271.915,13.3365613 272.078,13.4189591 272.164,13.5628946 C272.257,13.7089161 272.269,13.8956151 272.202,14.086486 L271.529,16.4071849 C271.318,17.1362495 270.703,19.130486 270.69,19.1596903 L270.69,19.1617763 L270.685,19.1711634 C270.614,19.3526473 270.623,19.5998409 270.685,19.6728516 L270.69,19.6801527 L270.698,19.6864108 C270.826,19.8835398 273.862,24.4842602 272.797,27.9230667 C272.364,29.3394753 270.287,28.9733785 270.194,28.9619054 L270.211,28.9619054 C269.831,28.9619054 269.515,29.3008839 269.515,29.7107871 L269.515,34.9341849 C269.515,35.3347011 269.81,35.6257011 270.211,35.6257011 L270.223,35.6257011 L270.231,35.6257011 C270.254,35.6288301 272.833,36.1284323 274.444,34.3866043 C275.817,32.8784108 276.277,29.7827548 275.643,26.2897118 C275.22,23.9596258 273.653,20.969314 272.76,19.3912387 L272.73,19.3432602 L272.744,19.2952817 C272.869,18.935443 273.083,18.3597011 273.328,17.6932172 C273.728,16.6137011 274.218,15.2776043 274.658,14.0082602 C275.417,11.7981204 276.249,8.5554 276.259,8.51472258 C276.389,8.14653978 276.371,7.80338925 276.207,7.54055054 C276.043,7.28396989 275.747,7.14629247 275.387,7.14629247 L273.23,7.14629247 L267.723,7.14629247 C266.954,7.14629247 266.328,7.82216344 266.328,8.65448602 L266.328,9.92383011 L266.328,11.7637011 L266.328,44.5872495 C266.328,45.0013247 266.637,45.3413462 267.026,45.3413462 L267.823,45.3413462 C268.212,45.3413462 268.523,45.0013247 268.523,44.5872495 L268.523,13.8799699 Z M298.303,15.342271 C298.303,14.9229806 297.992,14.5829591 297.603,14.5829591 L279.56,14.5829591 C279.174,14.5829591 278.863,14.9229806 278.863,15.342271 L278.863,20.3998301 C278.863,20.8139054 278.548,21.1487118 278.162,21.1487118 L277.36,21.1487118 C276.98,21.1487118 276.666,20.8139054 276.666,20.3998301 L276.666,13.0768516 L276.666,11.3193785 L276.666,9.96972258 C276.666,9.13322796 277.292,8.45214194 278.065,8.45214194 L287.028,8.45214194 L287.126,8.45214194 L287.126,8.34992688 L287.126,6.60809892 C287.126,6.19193763 287.441,5.85295914 287.828,5.85295914 L288.627,5.85295914 C289.014,5.85295914 289.323,6.19193763 289.323,6.60809892 L289.323,8.34992688 L289.323,8.45214194 L289.42,8.45214194 L299.098,8.45214194 C299.877,8.45214194 300.498,9.13322796 300.498,9.96972258 L300.498,11.3193785 L300.498,13.0768516 L300.498,20.3998301 C300.498,20.8139054 300.186,21.1487118 299.803,21.1487118 L299,21.1487118 C298.618,21.1487118 298.303,20.8139054 298.303,20.3998301 L298.303,15.342271 Z" id="Fill-14" fill="#FEFEFE"></path>
                    <path d="M193.2505,13.0768516 L193.2505,19.0084538 C193.2505,19.1826366 193.1145,19.3297011 192.9485,19.3297011 L190.0805,19.3297011 L189.9105,19.3297011 L189.9935,19.4861527 C190.2065,19.9210882 190.4535,20.3111742 190.7285,20.7023032 C191.2715,21.4407548 192.1045,22.1760774 192.1375,22.2052817 L192.1425,22.2146688 L192.1485,22.2177978 C192.5475,22.4597763 192.7505,22.8446473 192.7505,23.3598946 L192.7505,29.4312602 C192.7505,29.8369914 192.6355,30.1530237 192.4665,30.2208194 C192.3315,30.2740129 192.1645,30.1738839 191.9915,29.9444215 C191.9775,29.9287763 191.2395,29.0693355 190.2325,25.1820344 C190.1535,24.9077226 190.0685,24.5687441 189.9765,24.1630129 L189.7825,24.1880452 L189.7825,44.6143677 C189.7825,45.031572 189.4695,45.3726366 189.0825,45.3726366 L188.1855,45.3726366 C187.8035,45.3726366 187.4855,45.031572 187.4855,44.6143677 L187.4855,24.8660022 L187.2905,24.8409699 C186.8275,26.9561957 186.4225,28.6093677 186.0965,29.7431204 C184.6605,34.7214108 182.9145,36.4048301 182.8985,36.4256903 L182.8935,36.4309054 L182.8815,36.4413355 L182.9405,36.397529 C182.7065,36.4621957 182.5135,36.4413355 182.3735,36.3151312 C182.2065,36.1743247 182.1115,35.8947978 182.1115,35.5485183 L182.1115,27.4119914 C182.1115,26.7475935 182.3985,26.2511204 182.9745,25.9361312 L182.9825,25.9246581 L182.9885,25.9184 C183.0045,25.9110989 184.1525,24.8941634 184.9205,23.9491957 C186.3525,22.1708624 186.9195,20.5218624 187.1465,19.4569484 L187.1715,19.3297011 L187.0465,19.3297011 L183.0135,19.3297011 C182.8455,19.3297011 182.7155,19.1826366 182.7155,19.0084538 L182.7155,13.0768516 C182.7155,12.8984968 182.8455,12.7535183 183.0135,12.7535183 L187.3865,12.7535183 L187.4855,12.7535183 L187.4855,12.6492172 L187.4855,6.92830323 C187.4855,6.5090129 187.8035,6.17212043 188.1855,6.17212043 L189.0825,6.17212043 C189.4695,6.17212043 189.7825,6.5090129 189.7825,6.92830323 L189.7825,12.6492172 L189.7825,12.7535183 L189.8815,12.7535183 L192.9485,12.7535183 C193.1145,12.7535183 193.2505,12.8984968 193.2505,13.0768516 L193.2505,13.0768516 Z M218.0775,21.9007226 L218.0775,27.6529269 C218.0775,28.0659591 217.4835,28.541572 217.1005,28.541572 L217.1205,28.5426151 C217.1075,28.5426151 216.5905,28.441443 215.7385,28.2057226 L215.6695,28.4091097 C216.1475,28.6656903 216.4375,29.1788516 216.4375,29.7514645 L216.4375,42.5638086 C216.4375,43.4013462 215.8185,44.0761742 215.0445,44.0761742 L196.7295,44.0761742 C195.9575,44.0761742 195.3305,43.4013462 195.3305,42.5638086 L195.3305,29.7514645 C195.3305,29.5313892 195.3765,29.309228 195.4755,29.0985398 L195.5575,28.9045398 L195.3705,28.9431312 C194.7655,29.0557763 194.4295,29.0714215 194.4295,29.0714215 C194.0645,29.0714215 193.6595,28.7710344 193.6595,28.3360989 L193.6595,22.3627763 C193.6595,21.9466151 194.1135,21.4564 194.4955,21.4564 C194.5265,21.4647441 198.3985,21.7557441 202.4315,20.7638409 L202.5985,20.7231634 L202.4795,20.587572 C200.7825,18.5912495 199.4965,16.0963677 199.1465,15.3787763 L199.0665,15.2223247 L198.9735,15.3641742 C196.7785,18.7842065 194.8765,19.324486 194.8585,19.3297011 L194.8815,19.3297011 C194.4795,19.3297011 194.1875,19.035572 194.1875,18.639228 L194.1875,12.2570452 C194.1875,11.8189806 194.6335,11.2828731 195.0025,11.2828731 L195.0185,11.2828731 L195.0265,11.2807871 C195.1065,11.2599269 196.9185,10.7092172 197.6285,10.1376473 C197.8525,9.95824946 198.0725,9.7579914 198.2835,9.55251828 C198.6205,9.22814194 198.9495,8.86726022 199.2555,8.48030323 C200.0185,7.51030323 200.3875,6.72700215 200.3995,6.6925828 C200.6135,6.26703441 200.8015,6.20132473 201.6475,6.55281935 C202.3295,6.83756129 202.3365,7.08266882 202.2925,7.37575484 C202.2925,7.37053978 202.1935,7.76896989 202.0135,8.37913118 L201.9795,8.51889462 L202.1145,8.51889462 L215.3115,8.51889462 C215.6965,8.51889462 216.1165,9.10089462 216.1165,9.51184086 L216.1165,9.92383011 L216.1165,9.90296989 L215.9735,10.6289054 L215.9795,10.6205613 C215.9735,10.6247333 215.9735,10.6289054 215.9685,10.6528946 C215.8275,11.1952602 215.4305,12.6127118 214.6675,14.1490667 C213.7305,16.0452602 211.8685,18.6152387 210.1465,20.393572 L210.0025,20.5385505 L210.1925,20.5781849 C213.2225,21.1580989 215.7325,21.0506688 217.0835,20.9891312 C217.4215,20.9891312 217.6835,21.0830022 217.8545,21.259271 C218.0375,21.4564 218.0775,21.7192387 218.0775,21.9007226 L218.0775,21.9007226 Z M204.0315,18.063486 C204.6675,18.5401419 205.3985,18.9719484 206.2145,19.3432602 L206.2505,19.3568194 L206.2905,19.3380452 C206.8295,19.0543462 207.3405,18.742486 207.8065,18.4076796 C209.5775,17.1153892 210.8605,15.5185398 211.7815,14.2721419 L211.9105,14.0948301 L211.7025,14.0948301 L200.8495,14.0948301 L200.7025,14.0948301 L200.7525,14.2366796 C201.1465,15.4100667 202.3365,16.8056151 204.0315,18.063486 L204.0315,18.063486 Z M214.3025,35.0895935 C214.3025,34.7307978 214.0345,34.4429269 213.7085,34.4429269 L198.0665,34.4429269 C197.7315,34.4429269 197.4635,34.7307978 197.4635,35.0895935 L197.4635,37.1411957 C197.4635,37.4979054 197.7315,37.7909914 198.0665,37.7909914 L213.7085,37.7909914 C214.0345,37.7909914 214.3025,37.4979054 214.3025,37.1411957 L214.3025,35.0895935 Z M215.1595,28.0388409 C212.9355,27.3660989 209.5715,26.0717226 206.1715,23.7249484 L206.1185,23.6926151 L206.0625,23.7249484 C203.4415,25.6409591 200.8755,27.0876151 198.4425,28.0284108 L198.4745,28.242228 L215.0445,28.242228 L215.0815,28.242228 C215.0965,28.242228 215.1125,28.2464 215.1275,28.2464 L215.1595,28.0388409 Z" id="Fill-16" fill="#FEFEFE"></path>
                    <path d="M91.3145,13.2174495 C91.2725,13.2153634 90.2545,13.1590409 88.8025,12.5728688 C87.6865,12.1212452 86.6615,11.4370301 85.7795,10.551514 C84.3855,9.14240645 83.8245,7.73329892 83.8005,7.67384731 L83.8055,7.69157849 C83.6185,7.37137419 83.2135,7.3619871 83.2095,7.3619871 L76.4835,7.3619871 C76.0955,7.3619871 75.7825,7.6821914 75.7825,8.10043871 L75.7825,12.0367613 C75.7825,12.4497935 76.1025,12.7908581 76.4835,12.7908581 C76.8185,12.7908581 84.6085,12.7793849 84.9115,12.7908581 C85.2205,12.7960731 85.3515,13.0338796 85.3715,13.1600839 L85.3675,13.1413097 C85.3775,13.1663419 86.5095,15.7999441 87.3785,17.0202667 C89.4455,19.9208796 90.9845,21.0827935 91.0005,21.0921806 L90.9845,21.0848796 L91.0125,21.0942667 C91.3685,21.2632344 91.6755,21.4082129 91.8315,21.2997398 C91.9505,21.2079548 92.0185,20.935729 92.0185,20.4841054 L92.0185,13.9778043 C92.0185,13.556428 91.7065,13.2174495 91.3145,13.2174495 L91.3145,13.2174495 Z M91.4395,26.2957613 C91.4175,26.2623849 88.5835,22.7203204 87.6275,21.6209871 C86.6775,20.5185247 84.1125,17.7065677 84.0855,17.6742344 C83.8175,17.339428 83.6475,17.1360409 83.1255,17.6179118 L83.1365,17.6085247 C83.1365,17.6085247 82.6345,18.215557 82.6345,18.2103419 C82.4105,18.5138581 82.3615,18.7839978 82.7965,19.2533527 C82.8055,19.2627398 83.6945,20.3307828 84.6375,21.4259441 L84.7815,21.5959548 L84.5685,21.6053419 L77.7915,21.9756108 L76.9515,22.0194172 L76.7595,22.0235892 L76.8645,21.8504495 L77.8875,20.0783742 C79.0645,18.0090409 80.3835,15.6122022 80.3875,15.5892559 C80.4885,15.4109011 80.5065,15.2315032 80.4645,15.0667075 C80.4165,14.9019118 80.3075,14.7757075 80.1325,14.6880946 L79.5125,14.3470301 C79.1765,14.1686753 78.7395,14.333471 78.5395,14.7172989 C78.5245,14.7548473 76.6385,18.1122989 75.9135,19.2001591 C75.5315,19.7686 74.9115,20.7500731 74.0595,22.098686 L74.0325,22.1414495 L73.9815,22.1414495 C73.9815,22.1414495 70.8225,22.2467935 70.8155,22.2467935 C70.5965,22.2467935 70.4175,22.4418366 70.4175,22.677557 C70.4175,22.677557 70.5535,26.7609441 70.5535,26.7640731 C70.5535,27.1969226 71.0045,27.4743634 71.2335,27.4743634 C71.2705,27.4722774 74.8315,27.3690194 77.8665,27.2031806 C82.4385,26.9539011 87.8075,26.5460839 88.8365,26.465772 L88.8925,26.465772 L88.9215,26.5095785 L90.1035,27.9927398 C90.3795,28.3317183 90.6015,28.3723957 90.8875,28.1387613 L90.8725,28.1481484 L91.4085,27.4628903 C91.6795,27.0842774 91.6955,26.6107505 91.4395,26.2957613 L91.4395,26.2957613 Z M69.8815,29.5165785 C69.8755,29.4873742 69.3435,26.9059226 69.0225,25.5677398 C68.6445,23.940643 67.7085,20.8762774 67.6995,20.8429011 L67.7085,20.8627183 C67.5005,20.4653312 67.1325,20.3078366 66.8155,20.4747183 C66.8155,20.4747183 66.1685,20.8168258 66.1725,20.8136968 C65.7095,21.1036538 65.8225,21.7722237 66.0045,22.1278903 L66.0105,22.1341484 L66.0105,22.1466645 C66.0165,22.1518796 66.1835,22.6890301 66.3965,23.4608581 L66.4285,23.5922774 L66.3045,23.5985355 L62.7315,23.7664602 L62.5385,23.7748043 L62.6415,23.6016645 C63.7435,21.7816108 64.6895,20.2254387 65.4745,18.9696538 C67.9285,14.9863957 69.2285,12.689686 69.2425,12.6646538 C69.4905,12.2776968 69.5415,11.7509763 69.3575,11.5382022 L69.3705,11.5465462 L68.5795,10.8581591 L68.5895,10.8675462 C68.1995,10.6088796 67.9075,10.6453849 67.6995,10.9760194 L64.5185,16.1274495 L64.4385,16.2557398 L64.3515,16.1274495 C64.0585,15.6779118 63.2945,14.5170409 62.5745,13.4802882 L62.5315,13.4250086 L62.5695,13.362428 L63.0385,12.5061161 C64.1505,10.4492989 65.2495,8.09313763 65.2655,8.06289032 C65.4685,7.69887957 65.4745,7.25664301 65.2795,7.0616 L64.6335,6.46812688 L64.6475,6.4796 C64.3815,6.32940645 64.0215,6.24179355 63.7865,6.65586882 C63.7755,6.67464301 62.7445,8.73250323 62.0945,9.95804086 L61.2845,11.4631054 L61.2115,11.5986968 L61.1165,11.4777075 L59.9005,9.82349247 L59.9005,9.81827742 L59.8965,9.8161914 C59.7975,9.63992258 59.6285,9.52101935 59.4735,9.51997634 C59.3255,9.51163226 59.2005,9.59090108 59.0975,9.74318065 L56.5235,13.6732452 C56.2235,14.1217398 56.4015,14.5024387 56.6125,14.7454602 L58.3015,16.9003204 C59.4515,18.3438473 60.9365,20.4966215 61.3575,21.1192989 L61.4055,21.1787505 L61.3675,21.2444602 L59.8015,23.8071376 L59.7715,23.8488581 L59.7185,23.8551161 C57.8635,23.8582452 56.8045,23.7633312 56.8045,23.7633312 C56.5795,23.7633312 56.2035,24.135686 56.2035,24.3651484 C56.2035,24.3651484 56.3645,28.7249333 56.3645,28.7343204 C56.3645,28.979428 56.7105,29.3789011 56.9245,29.3789011 C56.9435,29.3830731 58.9975,29.3976753 62.0435,29.3350946 L62.5745,29.3215355 L62.6745,29.3215355 L62.6745,29.4310516 L62.6745,44.5870409 C62.6745,45.0021591 62.9865,45.3411376 63.3755,45.3411376 L64.1355,45.3411376 C64.5185,45.3411376 64.8305,45.0021591 64.8305,44.5870409 L64.8305,29.3444817 L64.8305,29.2412237 L64.9245,29.2391376 C66.2815,29.1723849 67.2165,29.0993742 67.6565,29.0597398 L67.7345,29.0566108 L67.7555,29.1452667 L68.0745,30.4490301 L68.0645,30.4208688 C68.2625,30.8130409 68.6225,30.9621914 68.9565,30.7911376 L69.5985,30.4490301 C69.9795,30.2498151 69.9665,29.8357398 69.8815,29.5165785 L69.8815,29.5165785 Z M86.1345,31.8560516 L86.1395,31.8633527 C86.1505,31.8831699 86.7915,33.9848366 87.0535,34.7295462 C87.3185,35.4732129 89.0015,41.791772 89.0735,42.0566968 L89.0685,42.0483527 C89.1585,42.2517398 89.2825,42.3894172 89.4255,42.4300946 C89.5615,42.4739011 89.7225,42.4259226 89.8835,42.3049333 L91.9265,40.4963527 L91.9185,40.5078258 L91.9785,40.4410731 C92.3965,39.9623312 92.6265,39.6942774 92.3705,38.6898581 L92.3705,38.680471 L92.3625,38.6721269 L92.3705,38.6971591 C92.3625,38.6606538 91.4195,35.678686 90.4195,32.666471 C89.7895,30.7431591 89.2535,29.465471 89.2465,29.4560839 C89.0575,29.0461806 88.9385,28.8678258 88.8125,28.8354925 C88.6825,28.8031591 88.4945,28.9158043 88.2435,29.1108473 L86.4835,30.6607613 L86.4875,30.6555462 C86.1065,31.0633634 85.9835,31.4930839 86.1345,31.8539656 L86.1345,31.8560516 Z M78.9285,30.4073097 L78.9285,30.4125247 C78.9325,30.4333849 79.5735,32.6237075 79.8345,33.3642452 C80.1075,34.1068688 80.8175,37.0575462 80.8485,37.1774925 L80.8425,37.1660194 C81.0105,37.5540194 81.4745,37.6218151 81.8195,37.4830946 L81.7985,37.4935247 L83.9765,35.9884602 C84.4405,35.6713849 84.6535,35.2114172 84.4935,34.8463634 L84.4935,34.8401054 L84.4895,34.8286323 C84.4825,34.8150731 83.9395,32.8041484 83.3815,31.0936108 C83.0255,30.0203527 82.1865,28.1752667 82.1755,28.1523204 C82.0345,27.820643 81.8515,27.7695355 81.4195,27.9364172 L81.4385,27.9239011 C81.4385,27.9239011 79.2765,29.3945462 79.2685,29.3955892 C78.9325,29.5875032 78.7765,30.0506 78.9285,30.4010516 L78.9285,30.4073097 Z M77.7005,29.3830731 C77.7005,28.9637828 77.3855,28.6227183 76.9985,28.6227183 L76.3215,28.6227183 C75.9055,28.6227183 75.7255,29.0034172 75.7255,29.3830731 L75.7255,42.3091054 C75.7255,43.5116968 76.5385,44.2553634 77.2985,44.2553634 L84.0565,44.2553634 C85.3715,44.2553634 86.7295,43.9153419 86.7295,41.3662237 L86.7295,35.8820731 C86.7295,35.5086753 86.5425,35.1269333 86.1275,35.1269333 L85.5325,35.1269333 C85.3145,35.1269333 85.0635,35.2260194 85.0635,35.9926323 C85.0635,35.9926323 84.8635,36.7967935 84.8635,36.7926215 L85.0635,36.7926215 C85.0635,37.4705785 84.9165,37.9566215 84.6255,38.2778688 C84.1955,38.7367935 83.5485,38.7367935 83.0255,38.7367935 L82.9425,38.7367935 C82.9425,38.7367935 78.7955,38.7367935 78.7915,38.7357505 C77.9305,38.6689978 77.7005,37.6843957 77.7005,37.1086538 L77.7005,29.3830731 Z M70.7265,44.3304602 C70.7365,44.3283742 72.2885,44.0133849 73.5795,36.0093204 C74.1275,32.571557 73.9555,29.6782452 73.9495,29.6490409 L73.9555,29.665729 C73.8925,29.3862022 73.7405,29.1035462 72.9945,29.1296215 C72.1265,29.1588258 72.0745,29.3215355 72.0325,29.8305247 C72.0325,29.8440839 71.8655,31.4982989 71.4735,32.7770301 C71.0295,34.1955247 70.6375,34.6909548 70.6225,34.7139011 L70.6175,34.7212022 L70.6135,34.7295462 C70.3315,34.9683957 70.1955,35.3188473 70.1955,35.8236645 L70.1955,43.2968366 C70.1955,44.0989118 70.3145,44.3304602 70.7325,44.3304602 L70.7265,44.3304602 Z M68.6155,42.6532989 C68.9395,42.6532989 69.0355,42.4666 69.0355,41.8282774 L69.0355,33.931643 C69.0355,33.5592882 68.8995,33.2724602 68.6645,33.1462559 L68.6395,33.1358258 L68.6225,33.1139226 C68.6225,33.1097505 68.3505,32.7102774 68.0275,32.1793849 C67.6715,31.599471 67.5055,30.9027398 67.5005,30.8735355 L67.5005,30.8662344 L67.5005,30.8589333 C67.4515,30.4761484 67.3735,30.343686 66.6575,30.3603742 C66.1575,30.3728903 66.1325,30.6190409 66.0875,30.8954387 L66.0855,30.9413312 L66.0855,30.9236 C66.0855,30.9580194 66.2455,34.4906968 66.6325,37.2901376 C67.3535,42.5031054 68.6115,42.6501699 68.6155,42.6532989 L68.6155,42.6532989 Z M56.7995,44.6829978 L56.8045,44.6861269 L56.7665,44.6861269 C56.7815,44.6829978 59.1575,43.9643634 60.3655,37.1493312 C60.9765,33.7126108 60.9885,30.9945247 60.9885,30.9674065 L60.9885,30.9851376 C60.9395,30.6691054 60.8615,30.4573742 60.1565,30.4490301 C59.2775,30.4281699 59.2695,30.5043097 59.2055,31.0080839 C59.1955,31.0477183 59.0075,32.0813419 58.2105,33.6844495 C57.5465,35.0205462 56.7455,35.3417935 56.7105,35.3563957 L56.7235,35.3490946 C56.3795,35.5326645 56.2505,35.7662989 56.2505,36.1814172 L56.2505,43.6431161 C56.2505,44.4462344 56.3705,44.6829978 56.7815,44.6829978 L56.7995,44.6829978 Z M69.3745,21.130772 C69.1705,21.1485032 69.0495,21.1266 68.9715,21.0504602 C68.8735,20.9524172 68.8265,20.734428 68.8265,20.3745892 L68.8265,14.9634495 C68.8265,14.5483312 69.1395,14.2093527 69.5265,14.2093527 C69.5875,14.2041376 70.8985,14.1071376 71.9335,13.5272237 C73.5715,12.6166753 73.9195,11.9522774 73.9355,11.9230731 L73.9235,11.9408043 C74.0955,11.720729 74.2005,11.6331161 74.3105,11.6289441 C74.4555,11.622686 74.6545,11.7666215 74.9575,12.101428 C75.4615,12.6646538 75.2555,13.1955462 75.1195,13.5439118 L75.1065,13.5658151 C75.0985,13.5950194 74.0795,16.2536538 72.2215,18.6734387 C70.3975,21.0535892 69.3895,21.130772 69.3745,21.130772 L69.3745,21.130772 Z" id="Fill-18" fill="#FEFEFE"></path>
                </g>
            </g>
        </g>
    </g>
</svg>