<?xml version="1.0" encoding="UTF-8"?>
<svg width="13px" height="23px" viewBox="0 0 13 23" version="1.1" xmlns="http://www.w3.org/2000/svg" xmlns:xlink="http://www.w3.org/1999/xlink">
    <title>􀆉</title>
    <g id="Page-1" stroke="none" stroke-width="1" fill="none" fill-rule="evenodd">
        <g id="受講証" transform="translate(-54.000000, -68.000000)" fill="#333333" fill-rule="nonzero">
            <g id="Group-2528" transform="translate(27.205000, 15.921500)">
                <path d="M38.0527344,74.3637156 C38.7128906,74.3637156 39.2080078,73.8685984 39.2080078,73.2084422 C39.2080078,72.8910594 39.0810547,72.5990672 38.8779297,72.3832469 L29.6357422,63.3441844 L38.8779297,54.3051219 C39.0810547,54.0893016 39.2080078,53.7846141 39.2080078,53.4799266 C39.2080078,52.8197703 38.7128906,52.3119578 38.0527344,52.3119578 C37.7226562,52.3119578 37.4433594,52.4389109 37.2275391,52.6547313 L27.1728516,62.4935984 C26.9316406,62.6967234 26.7919922,63.0141063 26.7919922,63.3441844 C26.7919922,63.6615672 26.9189453,63.9535594 27.1601562,64.1947703 L37.2275391,74.0209422 C37.4433594,74.2367625 37.7226562,74.3637156 38.0527344,74.3637156 Z" id="􀆉"></path>
            </g>
        </g>
    </g>
</svg>